<svg
  id="Layer_1"
  data-name="Layer 1"
  xmlns="http://www.w3.org/2000/svg"
  viewBox="0 0 678.81 259.3"
>
  <defs>
    <style>
      .cls-1 {
        fill: #24933c;
      }
      .cls-2 {
        fill: #ee3124;
      }
    </style>
  </defs>
  <path
    class="cls-1"
    d="M88.6,119.85,1.7,101.65a96.5,96.5,0,0,0,.3,20H88.6A10.52,10.52,0,0,1,88.6,119.85Z"
    transform="translate(-1.31 -0.75)"
  />
  <path
    class="cls-2"
    d="M147.8,113l75.7-11.7a126.53,126.53,0,0,0-2.6-17.5l-73.6,27.6C147.6,112.05,147.6,112.45,147.8,113Z"
    transform="translate(-1.31 -0.75)"
  />
  <path
    class="cls-1"
    d="M90.6,109.35,10.5,65.65c-3.1,6.4-6.2,17.1-7.5,24.5L90.1,111A4.11,4.11,0,0,1,90.6,109.35Z"
    transform="translate(-1.31 -0.75)"
  />
  <path
    class="cls-1"
    d="M202.8,45.35c-3.8-6.1-10.4-12.6-16-17.6l-48.7,69.6a6.53,6.53,0,0,1,1.2,1.1Z"
    transform="translate(-1.31 -0.75)"
  />
  <path
    class="cls-1"
    d="M96.9,99.45,40.4,25.85c-6.3,4.8-18.5,18.3-22.5,25.5l77.9,49.2Z"
    transform="translate(-1.31 -0.75)"
  />
  <path
    class="cls-1"
    d="M125.5,91l32.1-81.7c-7.7-3.9-21.5-7.4-31.5-8.5L124,90.65C124.6,90.75,125,90.85,125.5,91Z"
    transform="translate(-1.31 -0.75)"
  />
  <path
    class="cls-1"
    d="M109.4,91.65,97.9.85a110.22,110.22,0,0,0-40,13.2l49.9,78.2A8.23,8.23,0,0,1,109.4,91.65Z"
    transform="translate(-1.31 -0.75)"
  />
  <path
    class="cls-1"
    d="M3.4,130.25s1.4,5.5,2.8,10.1c1.5,4.9,3,8.7,3,8.7,38.5-17.2,97.4-22.6,97.4-22.6C76,126.45,31.8,126.65,3.4,130.25Z"
    transform="translate(-1.31 -0.75)"
  />
  <path
    class="cls-1"
    d="M166.2,126.35c-52.1,2.8-107.6,45.1-124.7,66.6a97.71,97.71,0,0,0,15,10.7,94.08,94.08,0,0,0,15.5,7C112.6,145.25,166.2,126.35,166.2,126.35Z"
    transform="translate(-1.31 -0.75)"
  />
  <path
    class="cls-1"
    d="M174.7,126.35c-44.6,13.5-81.8,78.1-85.1,89.2,0,0,7.2,2.2,22.9,2.3a112.81,112.81,0,0,0,29.1-3.7C140.3,162.65,174.7,126.35,174.7,126.35Z"
    transform="translate(-1.31 -0.75)"
  />
  <path
    class="cls-1"
    d="M13.2,158.35a80.8,80.8,0,0,0,7.4,12.4c5.7,8.1,9.1,11.1,9.1,11.1,56.2-44.6,116.9-55.5,116.9-55.5C76.7,126.35,27.3,149.45,13.2,158.35Z"
    transform="translate(-1.31 -0.75)"
  />
  <path
    d="M244,258.25l6.7-131.8H215.6l-62.4,131.8h28.5l11-26.7h25.9l-2.6,26.7Zm-43.1-45.7,24.9-58.1-5.6,58.1Z"
    transform="translate(-1.31 -0.75)"
  />
  <path
    d="M306.2,173.65c6.9,0,5.8,4.2,5.5,5.3l-19.8,79.4h27.2l20.1-80.8c1.5-.9,4.7-3.5,8.5-3.5,5.3,0,6.2,2.7,5.6,4.9l-19.8,79.4h27.4l20.7-83.2c1.3-5.1,4.9-19.7-13.9-19.7-11.2,0-23.8,8.9-26.5,10.8-.7-2.4-3.2-10.8-15.6-10.8-12.7,0-22,7.7-24.4,9.3l1.8-7.3H275.6l-25.2,100.9h27.4L298.1,177C299.6,175.85,303.7,173.65,306.2,173.65Z"
    transform="translate(-1.31 -0.75)"
  />
  <path
    d="M420.6,234.15a11.9,11.9,0,0,1-11.6,8.9c-5.8,0-7.1-4.2-5.8-9.3l5.3-21.4h44.2l7.9-30.8c1.3-5.1,2-26.3-29-26.3-24.4,0-38.5,14-42.4,29.5L377.9,230c-5,20.1,2.2,29.9,28.1,29.9,26.6,0,37.5-15.9,40.8-26.1l2.5-10H423.2Zm-4.1-53.8c1-4,5.2-7.5,11.3-7.5,8.1,0,6.8,5.3,6.2,7.5l-3.8,15.1H412.7Z"
    transform="translate(-1.31 -0.75)"
  />
  <path
    d="M493.5,193c1.6-6.6,5.1-19.4,25.4-19.4a61.42,61.42,0,0,1,10.6,1.1l4.8-19.3c-15.8.2-23.6,4-34.5,12l2.5-10H476.2L451,258.25h26.2Z"
    transform="translate(-1.31 -0.75)"
  />
  <path
    d="M516.6,230.15c-5,20.1,2.2,29.9,28.1,29.9,26.7,0,37.5-15.9,40.8-26.1l2.5-10H561.8l-2.5,10.2a11.9,11.9,0,0,1-11.6,8.9c-5.8,0-7.1-4.2-5.8-9.3l5.3-21.4h44.2l7.9-30.8c1.3-5.1,2-26.3-29-26.3-24.4,0-38.5,14-42.4,29.5Zm38.6-49.8c1-4,5.2-7.5,11.3-7.5,8.1,0,6.8,5.3,6.3,7.5l-3.8,15.1H551.5Z"
    transform="translate(-1.31 -0.75)"
  />
  <path
    d="M617.5,258.25l20.1-80.6c2.6-1.5,5.9-3.3,8.9-3.3,6.1,0,5.1,4,3,12.4l-17.8,71.5h27.4l19-76.4c2.4-9.7,6.4-26.5-13.7-26.5-12.2,0-20.6,7.5-23.8,9.8l1.9-7.8H615.3l-25.1,100.9Z"
    transform="translate(-1.31 -0.75)"
  />
</svg>
