<svg xmlns="http://www.w3.org/2000/svg" width="35" height="35" viewBox="0 0 521.58 521.57">
  <path id="BT_Logo_Indigo_RGB" d="M406.78,305.29H536.65v38.07H493.1V482.62H450.33V343.36H406.78V305.29ZM394,622.93c-126.22,0-228.71-102.49-228.71-228.71S267.78,165.51,394,165.51,622.72,268,622.72,394.22,520.23,622.93,394,622.93M394,655c143.95,0,260.79-116.83,260.79-260.79S537.96,133.43,394,133.43,133.21,250.26,133.21,394.22,250.05,655,394,655M349.93,428.38c0-11.21-7.04-18.78-19.04-18.78H302.2v37.03h28.69c12,.01,19.04-7.56,19.04-18.25m-5.21-71.19c0-9.39-6-15.91-16.17-15.91H302.21v32.34h26.34c10.17-.01,16.17-6.52,16.17-16.43m48.5,73.28c0,33.64-23.73,52.16-57.63,52.16H260.01V305.29h70.63c34.16,0,57.37,17.47,57.37,49.55,0,14.6-6.52,27.64-16.95,35.47,11.99,7.04,22.16,20.6,22.16,40.16" transform="translate(-133.21 -133.43)" fill="#5514b4"/>
</svg>
