  <svg xmlns="http://www.w3.org/2000/svg" width="30" height="30" viewBox="0 0 30 30">
    <g id="Group_161" data-name="Group 161" transform="translate(-1303.412 -29.896)">
      <path
        id="Path_99"
        data-name="Path 99"
        d="M250.493,20.961a15,15,0,1,1,15-15A15.017,15.017,0,0,1,250.493,20.961Zm0-28.469A13.469,13.469,0,1,0,263.962,5.961,13.484,13.484,0,0,0,250.493-7.508Z"
        transform="translate(1067.919 38.935)"
        fill="#646367"
      />
      <path
        id="Path_100"
        data-name="Path 100"
        d="M250.2,4.8l.421-.352.569-.545c.109-.108.287-.314.525-.607a4.774,4.774,0,0,0,.529-.774,5.384,5.384,0,0,0,.339-.855,3.313,3.313,0,0,0,.155-1A3.088,3.088,0,0,0,251.593-1.8a4.7,4.7,0,0,0-3.148-1,4.55,4.55,0,0,0-2.8.785,2.056,2.056,0,0,0-1,1.541.657.657,0,0,0,.231.554.885.885,0,0,0,.575.211.55.55,0,0,0,.385-.15,2.415,2.415,0,0,0,.385-.431,1.9,1.9,0,0,1,.79-.591,3.209,3.209,0,0,1,1.352-.256,2.907,2.907,0,0,1,1.859.563,1.988,1.988,0,0,1,.738,1.64,2.52,2.52,0,0,1-.291,1.166,3.268,3.268,0,0,1-.57.827c-.177.175-.434.407-.785.709l-.653.534a4.148,4.148,0,0,0-1.226,3.248c0,.514.1.7.157.768a.8.8,0,0,0,.563.162c.809,0,.809-.336.809-.5a6.7,6.7,0,0,1,.191-1.828A2.87,2.87,0,0,1,250.2,4.8Z"
        transform="translate(1069.769 40.197)"
        fill="#646367"
      />
      <circle
        id="Ellipse_12"
        data-name="Ellipse 12"
        cx="0.811"
        cy="0.811"
        r="0.811"
        transform="translate(1317.19 50.942)"
        fill="#646367"
      />
    </g>
  </svg>