<svg xmlns="http://www.w3.org/2000/svg" width="100" height="100" viewBox="0 0 100 100">
  <g id="Group_2558" data-name="Group 2558" transform="translate(456.736 -1215.433)">
    <g id="Group_2558-2" data-name="Group 2558">
      <rect id="Rectangle_2424" data-name="Rectangle 2424" width="100" height="100" transform="translate(-456.736 1215.433)" fill="none"/>
    </g>
    <g id="Group_2560" data-name="Group 2560">
      <circle id="Ellipse_93" data-name="Ellipse 93" cx="6.646" cy="6.646" r="6.646" transform="translate(-449.008 1218.095)" fill="none" stroke="#5d6267" stroke-linecap="round" stroke-miterlimit="10" stroke-width="3"/>
      <path id="Path_1640" data-name="Path 1640" d="M-454.236,1243.263a11.874,11.874,0,0,1,11.875-11.875,11.874,11.874,0,0,1,11.874,11.875Z" fill="none" stroke="#5d6267" stroke-linecap="round" stroke-linejoin="round" stroke-width="3"/>
      <circle id="Ellipse_94" data-name="Ellipse 94" cx="6.646" cy="6.646" r="6.646" transform="translate(-413.383 1218.095)" fill="none" stroke="#5d6267" stroke-linecap="round" stroke-miterlimit="10" stroke-width="3"/>
      <path id="Path_1641" data-name="Path 1641" d="M-418.612,1243.263a11.875,11.875,0,0,1,11.875-11.875,11.874,11.874,0,0,1,11.875,11.875Z" fill="none" stroke="#5d6267" stroke-linecap="round" stroke-miterlimit="10" stroke-width="3"/>
      <circle id="Ellipse_95" data-name="Ellipse 95" cx="6.646" cy="6.646" r="6.646" transform="translate(-377.758 1218.095)" fill="none" stroke="#5d6267" stroke-linecap="round" stroke-miterlimit="10" stroke-width="3"/>
      <path id="Path_1642" data-name="Path 1642" d="M-382.987,1243.263a11.875,11.875,0,0,1,11.875-11.875,11.875,11.875,0,0,1,11.875,11.875Z" fill="none" stroke="#5d6267" stroke-linecap="round" stroke-linejoin="round" stroke-width="3"/>
      <circle id="Ellipse_96" data-name="Ellipse 96" cx="6.646" cy="6.646" r="6.646" transform="translate(-449.008 1287.525)" fill="none" stroke="#5d6267" stroke-linecap="round" stroke-miterlimit="10" stroke-width="3"/>
      <path id="Path_1643" data-name="Path 1643" d="M-454.236,1312.692a11.875,11.875,0,0,1,11.875-11.875,11.875,11.875,0,0,1,11.874,11.875Z" fill="none" stroke="#5d6267" stroke-linecap="round" stroke-linejoin="round" stroke-width="3"/>
      <circle id="Ellipse_97" data-name="Ellipse 97" cx="6.646" cy="6.646" r="6.646" transform="translate(-413.383 1287.525)" fill="none" stroke="#5d6267" stroke-linecap="round" stroke-miterlimit="10" stroke-width="3"/>
      <path id="Path_1644" data-name="Path 1644" d="M-418.612,1312.692a11.875,11.875,0,0,1,11.875-11.875,11.875,11.875,0,0,1,11.875,11.875Z" fill="none" stroke="#5d6267" stroke-linecap="round" stroke-miterlimit="10" stroke-width="3"/>
      <circle id="Ellipse_98" data-name="Ellipse 98" cx="6.646" cy="6.646" r="6.646" transform="translate(-377.758 1287.525)" fill="none" stroke="#5d6267" stroke-linecap="round" stroke-miterlimit="10" stroke-width="3"/>
      <path id="Path_1645" data-name="Path 1645" d="M-382.987,1312.692a11.875,11.875,0,0,1,11.875-11.875,11.875,11.875,0,0,1,11.875,11.875Z" fill="none" stroke="#5d6267" stroke-linecap="round" stroke-linejoin="round" stroke-width="3"/>
    </g>
    <circle id="Ellipse_99" data-name="Ellipse 99" cx="6.646" cy="6.646" r="6.646" transform="translate(-413.383 1252.81)" fill="none" stroke="#5d6267" stroke-linecap="round" stroke-miterlimit="10" stroke-width="3"/>
    <path id="Path_1646" data-name="Path 1646" d="M-418.612,1277.977a11.875,11.875,0,0,1,11.875-11.875,11.875,11.875,0,0,1,11.875,11.875Z" fill="none" stroke="#5d6267" stroke-linecap="round" stroke-linejoin="round" stroke-width="3"/>
    <g id="Group_2561" data-name="Group 2561">
      <circle id="Ellipse_100" data-name="Ellipse 100" cx="6.646" cy="6.646" r="6.646" transform="translate(-377.758 1252.81)" fill="none" stroke="#5d6267" stroke-linecap="round" stroke-miterlimit="10" stroke-width="3"/>
      <path id="Path_1647" data-name="Path 1647" d="M-382.987,1277.977a11.875,11.875,0,0,1,11.875-11.875,11.875,11.875,0,0,1,11.875,11.875Z" fill="none" stroke="#5d6267" stroke-linecap="round" stroke-miterlimit="10" stroke-width="3"/>
    </g>
    <g id="Group_2562" data-name="Group 2562">
      <circle id="Ellipse_101" data-name="Ellipse 101" cx="6.646" cy="6.646" r="6.646" transform="translate(-449.008 1252.81)" fill="none" stroke="#5d6267" stroke-linecap="round" stroke-miterlimit="10" stroke-width="3"/>
      <path id="Path_1648" data-name="Path 1648" d="M-454.236,1277.977a11.875,11.875,0,0,1,11.875-11.875,11.875,11.875,0,0,1,11.874,11.875Z" fill="none" stroke="#5d6267" stroke-linecap="round" stroke-linejoin="round" stroke-width="3"/>
    </g>
  </g>
</svg>
