<svg xmlns="http://www.w3.org/2000/svg" width="100" height="100" viewBox="0 0 100 100">
  <g id="Group_2565" data-name="Group 2565" transform="translate(-641.264 -1451.433)">
    <g id="Group_2565-2" data-name="Group 2565">
      <rect id="Rectangle_2427" data-name="Rectangle 2427" width="100" height="100" transform="translate(641.264 1451.433)" fill="none"/>
    </g>
    <g id="Group_2566" data-name="Group 2566">
      <path id="Path_1658" data-name="Path 1658" d="M719.419,1467.333h-5.5a3.285,3.285,0,0,1-1.991-.672l-12.426-9.474h0a14.588,14.588,0,0,0-16.428-.029l-.043.029-12.426,9.474a3.282,3.282,0,0,1-1.99.672h-5.5a7.282,7.282,0,0,0-7.282,7.282v67a7.283,7.283,0,0,0,7.282,7.282h56.311a7.282,7.282,0,0,0,7.282-7.282v-67A7.282,7.282,0,0,0,719.419,1467.333Z" fill="none" stroke="#565559" stroke-linecap="round" stroke-linejoin="round" stroke-width="3"/>
    </g>
    <circle id="Ellipse_104" data-name="Ellipse 104" cx="20.317" cy="20.317" r="20.317" transform="translate(670.519 1493.938)" stroke-width="3" stroke="#565559" stroke-linecap="round" stroke-linejoin="round" fill="none"/>
    <path id="Path_1659" data-name="Path 1659" d="M690.836,1493.938a20.317,20.317,0,0,1,20.317,20.317H690.836Z" fill="#565559"/>
    <path id="Path_1660" data-name="Path 1660" d="M694.077,1490.775a20.318,20.318,0,0,1,20.317,20.318H694.077Z" fill="#efefef" stroke="#565559" stroke-linecap="round" stroke-linejoin="round" stroke-width="3"/>
    <path id="Path_1661" data-name="Path 1661" d="M710.319,1465.422a7.336,7.336,0,0,1,2.872,5.8v3.393a6.006,6.006,0,0,1-6,6H675.4a6.038,6.038,0,0,1-6.062-6v-3.393a7.336,7.336,0,0,1,2.872-5.8" fill="none" stroke="#565559" stroke-linecap="round" stroke-linejoin="round" stroke-width="3"/>
  </g>
</svg>
