<svg xmlns="http://www.w3.org/2000/svg" width="15" height="15.189" viewBox="0 0 15 15.189">
<g id="Group_6563" data-name="Group 6563" transform="translate(-4642.436 -4843.424)">
  <g id="Frames" transform="translate(4642.436 4843.518)">
    <rect id="Rectangle_3120" data-name="Rectangle 3120" width="15" height="15" transform="translate(0)" fill="none"/>
  </g>
  <g id="AW" transform="translate(4643.288 4843.924)">
    <g id="Group_3808" data-name="Group 3808" transform="translate(0)">
      <g id="AW-2" data-name="AW">
        <g id="Group_3808-2" data-name="Group 3808-2">
          <path id="Path_2732" data-name="Path 2732" d="M4654.767,4851.31l-6.647-2.544,6.647-2.542,6.647,2.542Z" transform="translate(-4648.119 -4846.223)" fill="none" stroke="#434447" stroke-linecap="round" stroke-linejoin="round" stroke-width="1"/>
        </g>
        <g id="Group_3811" data-name="Group 3811" transform="translate(0 2.542)">
          <path id="Path_2735" data-name="Path 2735" d="M4661.417,4863.168v9.1l-2.7,1.035-3.943,1.509-6.647-2.544v-9.1" transform="translate(-4648.122 -4863.168)" fill="none" stroke="#434447" stroke-linecap="round" stroke-linejoin="round" stroke-width="1"/>
        </g>
        <g id="Group_6564" data-name="Group 6564" transform="translate(0 -0.199)">
          <g id="Group_3809" data-name="Group 3809" transform="translate(2.216 9.459)">
            <path id="Path_2733" data-name="Path 2733" d="M4671.752,4909.281l-4.431,1.7-4.432-1.7" transform="translate(-4662.889 -4909.281)" fill="none" stroke="#434447" stroke-linecap="round" stroke-linejoin="round" stroke-width="1"/>
          </g>
          <g id="Group_3810" data-name="Group 3810" transform="translate(2.216 7.762)">
            <path id="Path_2734" data-name="Path 2734" d="M4662.889,4899.666l4.431-1.7,4.432,1.7" transform="translate(-4662.889 -4897.969)" fill="none" stroke="#434447" stroke-linecap="round" stroke-linejoin="round" stroke-width="1"/>
          </g>
          <line id="Line_261" data-name="Line 261" y1="1.525" transform="translate(2.215 9.459)" fill="none" stroke="#434447" stroke-linecap="round" stroke-linejoin="round" stroke-width="1"/>
          <line id="Line_262" data-name="Line 262" y2="1.525" transform="translate(11.078 9.459)" fill="none" stroke="#434447" stroke-linecap="round" stroke-linejoin="round" stroke-width="1"/>
          <line id="Line_263" data-name="Line 263" y1="1.525" transform="translate(6.647 11.155)" fill="none" stroke="#434447" stroke-linecap="round" stroke-linejoin="round" stroke-width="1"/>
          <path id="Path_2736" data-name="Path 2736" d="M4672.579,4893.617v-1.524l1.525-.584v1.524" transform="translate(-4668.91 -4884.716)" fill="none" stroke="#434447" stroke-linecap="round" stroke-linejoin="round" stroke-width="1"/>
          <path id="Path_2737" data-name="Path 2737" d="M4703.647,4893.617v-1.524l-1.525-.584v1.524" transform="translate(-4694.021 -4884.716)" fill="none" stroke="#434447" stroke-linecap="round" stroke-linejoin="round" stroke-width="1"/>
        </g>
      </g>
    </g>
  </g>
</g>
</svg>
