<?xml version="1.0" encoding="utf-8"?>
<!-- Generator: Adobe Illustrator 24.0.3, SVG Export Plug-In . SVG Version: 6.00 Build 0)  -->
<svg version="1.1" id="Layer_1" xmlns="http://www.w3.org/2000/svg" xmlns:xlink="http://www.w3.org/1999/xlink" x="0px" y="0px"
	 viewBox="0 0 229.4 53.4" style="enable-background:new 0 0 229.4 53.4;" xml:space="preserve">
<style type="text/css">
	.st0{fill:#0078B4;}
</style>
<g>
	<g>
		<g>
			<g>
				<g>
					<path class="st0" d="M24.6,40.8l11.1-6.4L10.6,20c-0.4-0.2-0.6-0.6-0.6-1s0.2-0.8,0.6-1L24,10.3c0.4-0.2,0.8-0.2,1.1,0
						l24.1,13.9v-5.4c0-3.9-2.1-7.4-5.4-9.4L30,1.4c-3.3-1.9-7.5-1.9-10.8,0l-13.8,8C2.1,11.3,0,14.9,0,18.8v7.9L24.6,40.8z"/>
					<path class="st0" d="M24.5,12.6L13.5,19l25,14.5c0.4,0.2,0.6,0.6,0.6,1c0,0.4-0.2,0.8-0.6,1l-13.4,7.7
						c-0.2,0.1-0.4,0.2-0.6,0.2s-0.4-0.1-0.6-0.2L0,29.3v5.4c0,3.9,2.1,7.4,5.4,9.4l13.8,8c3.3,1.9,7.5,1.9,10.8,0l13.8-8
						c3.3-1.9,5.4-5.5,5.4-9.4v-7.9L24.5,12.6z"/>
				</g>
			</g>
		</g>
	</g>
	<g>
		<path class="st0" d="M77.7,30.6L77.7,30.6c0-2.5-1.6-3.9-5.5-4.7c-3.9-0.8-4.6-1.8-4.6-3.4v0c0-1.7,1.6-2.9,3.8-2.9
			c1.7,0,3,0.5,4.4,1.5c0.1,0.1,0.3,0.2,0.5,0.2c0.4,0,0.8-0.4,0.8-0.8c0-0.2-0.1-0.5-0.3-0.6c-1.6-1.2-3.2-1.7-5.3-1.7
			c-3.1,0-5.4,1.9-5.4,4.4v0c0,2.6,1.6,3.9,5.6,4.7c3.7,0.8,4.4,1.7,4.4,3.3v0c0,1.8-1.6,3-3.9,3c-2.1,0-3.7-0.6-5.4-2.1
			c-0.1-0.1-0.3-0.2-0.5-0.2c-0.4,0-0.8,0.4-0.8,0.8c0,0.3,0.2,0.5,0.3,0.6c1.9,1.6,3.9,2.3,6.3,2.3C75.4,35.2,77.7,33.3,77.7,30.6z
			"/>
		<path class="st0" d="M96.6,18.4h-0.1c-0.3,0-0.6,0.2-0.7,0.4l-6.2,9.1l-6.2-9.1c-0.1-0.2-0.4-0.4-0.7-0.4h-0.1
			c-0.4,0-0.8,0.4-0.8,0.8v15.2c0,0.4,0.3,0.8,0.8,0.8s0.8-0.3,0.8-0.8v-13l5.6,8.2c0.2,0.3,0.4,0.4,0.7,0.4s0.5-0.1,0.7-0.4
			l5.6-8.2v13c0,0.4,0.4,0.8,0.8,0.8s0.8-0.4,0.8-0.8V19.1C97.4,18.7,97,18.4,96.6,18.4z"/>
		<path class="st0" d="M101.9,35.1c0.2,0,0.6-0.1,0.7-0.5l1.9-4.1h9.3l1.9,4.1c0.2,0.4,0.4,0.6,0.8,0.6c0.4,0,0.8-0.3,0.8-0.7
			c0-0.2,0-0.3-0.1-0.4l-6.9-15c-0.2-0.5-0.5-0.7-1-0.7h0c-0.4,0-0.8,0.2-1,0.7l-6.9,15c-0.1,0.2-0.1,0.4-0.1,0.4
			C101.2,34.8,101.5,35.1,101.9,35.1z M105.2,29l4-8.8l4,8.8H105.2z"/>
		<path class="st0" d="M133.2,35.1c0.4,0,0.8-0.4,0.8-0.8c0-0.2-0.1-0.3-0.2-0.5l-4.4-5.7c2.9-0.5,4.6-2.3,4.6-4.8v0
			c0-1.2-0.5-2.3-1.3-3.1c-1.1-1.1-2.7-1.6-4.7-1.6h-6.2c-0.4,0-0.8,0.4-0.8,0.8v15.1c0,0.4,0.4,0.8,0.8,0.8c0.4,0,0.8-0.4,0.8-0.8
			v-6h5l4.9,6.4C132.7,34.9,132.9,35.1,133.2,35.1z M127.9,26.8h-5.3v-6.9h5.4c2.8,0,4.5,1.3,4.5,3.4v0
			C132.4,25.5,130.6,26.8,127.9,26.8z"/>
		<path class="st0" d="M149.1,18.4h-11.6c-0.4,0-0.7,0.3-0.7,0.7c0,0.4,0.3,0.7,0.7,0.7h5v14.4c0,0.4,0.4,0.8,0.8,0.8
			c0.4,0,0.8-0.4,0.8-0.8V19.9h5c0.4,0,0.7-0.3,0.7-0.7C149.8,18.8,149.5,18.4,149.1,18.4z"/>
		<path class="st0" d="M158.9,25.9c-3.9-0.8-4.6-1.8-4.6-3.4v0c0-1.7,1.6-2.9,3.8-2.9c1.7,0,3,0.5,4.4,1.5c0.1,0.1,0.3,0.2,0.5,0.2
			c0.4,0,0.8-0.4,0.8-0.8c0-0.2-0.1-0.5-0.3-0.6c-1.6-1.2-3.2-1.7-5.3-1.7c-3.1,0-5.4,1.9-5.4,4.4v0c0,2.6,1.6,3.9,5.6,4.7
			c3.7,0.8,4.4,1.7,4.4,3.3v0c0,1.8-1.6,3-3.9,3c-2.1,0-3.7-0.6-5.4-2.1c-0.1-0.1-0.3-0.2-0.5-0.2c-0.4,0-0.8,0.4-0.8,0.8
			c0,0.3,0.2,0.5,0.3,0.6c1.9,1.6,3.9,2.3,6.3,2.3c3.3,0,5.5-1.9,5.5-4.6v0C164.3,28.1,162.7,26.7,158.9,25.9z"/>
		<path class="st0" d="M174.5,18.4h-5.3c-0.4,0-0.8,0.4-0.8,0.8v15.1c0,0.4,0.4,0.8,0.8,0.8s0.8-0.4,0.8-0.8V29h4.2
			c3.2,0,6.5-1.7,6.5-5.3v0C180.7,20.4,178.2,18.4,174.5,18.4z M179.1,23.6L179.1,23.6c0,2.3-2,3.9-4.9,3.9H170v-7.6h4.4
			C177.3,19.9,179.1,21.3,179.1,23.6z"/>
		<path class="st0" d="M190.6,19c-0.2-0.5-0.5-0.7-1-0.7h0c-0.4,0-0.8,0.2-1,0.7l-6.9,15c-0.1,0.2-0.1,0.4-0.1,0.4
			c0,0.4,0.3,0.7,0.7,0.7c0.2,0,0.6-0.1,0.7-0.5l1.9-4.1h9.3l1.9,4.1c0.2,0.4,0.4,0.6,0.8,0.6c0.4,0,0.8-0.3,0.8-0.7
			c0-0.2,0-0.3-0.1-0.4L190.6,19z M193.6,29h-8l4-8.8L193.6,29z"/>
		<path class="st0" d="M213.8,31.4c-0.2,0-0.4,0.1-0.5,0.2c-1.6,1.5-3.2,2.2-5.2,2.2c-3.7,0-6.7-3.1-6.7-7.1v0c0-4,2.9-7.1,6.7-7.1
			c1.9,0,3.5,0.6,5,2.1c0.1,0.1,0.3,0.2,0.5,0.2c0.4,0,0.8-0.4,0.8-0.8c0-0.2-0.1-0.4-0.3-0.6c-1.4-1.2-3.1-2.3-6.1-2.3
			c-4.6,0-8.3,3.8-8.3,8.6v0c0,4.9,3.5,8.5,8.2,8.5c2.4,0,4.3-0.8,6.3-2.6c0.2-0.2,0.2-0.3,0.2-0.5
			C214.6,31.8,214.2,31.4,213.8,31.4z"/>
		<path class="st0" d="M228.7,33.5h-9.1v-6.1h8c0.4,0,0.7-0.3,0.7-0.7c0-0.4-0.3-0.7-0.7-0.7h-8v-6h9.1c0.4,0,0.7-0.3,0.7-0.7
			c0-0.4-0.3-0.7-0.7-0.7h-9.8c-0.4,0-0.8,0.4-0.8,0.8v15c0,0.4,0.4,0.8,0.8,0.8h9.8c0.4,0,0.7-0.3,0.7-0.7S229.1,33.5,228.7,33.5z"
			/>
	</g>
</g>
</svg>
