<?xml version="1.0" encoding="utf-8"?>
<!-- Generator: Adobe Illustrator 23.0.4, SVG Export Plug-In . SVG Version: 6.00 Build 0)  -->
<svg version="1.1" id="Layer_1" xmlns="http://www.w3.org/2000/svg" xmlns:xlink="http://www.w3.org/1999/xlink" x="0px" y="0px" width="30px" height="30px" 
	 viewBox="0 0 100 100" style="enable-background:new 0 0 100 100;" xml:space="preserve">
<style type="text/css">
	.st0{fill:none;}
	.st1{enable-background:new    ;}
	.st2{fill:none;stroke:#434448;stroke-width:3;stroke-linecap:round;stroke-linejoin:round;stroke-miterlimit:10;}
</style>
<g>
	<g>
		<rect class="st0" width="100" height="100"/>
	</g>
	<g>
		<g>
			<g class="st1">
				<g>
					<polyline class="st2" points="50,54 50,96.3 17.7,83.9 17.7,62.3 					"/>
				</g>
				<g>
					<polygon class="st2" points="50,54 17.7,41.7 50,29.3 82.3,41.7 					"/>
				</g>
				<g>
					<polyline class="st2" points="82.3,62.3 82.3,83.9 50,96.3 50,54 82.3,41.7 					"/>
				</g>
				<g>
					<polyline class="st2" points="82.3,41.7 97.2,56.6 64.9,69 50,54 82.3,41.7 					"/>
				</g>
				<g>
					<polyline class="st2" points="17.7,41.7 2.7,56.6 35,69 50,54 17.7,41.7 					"/>
				</g>
			</g>
		</g>
	</g>
	<g>
		<g>
			<g class="st1">
				<g>
					<polygon class="st2" points="50,54 66.1,47.8 50,41.7 33.8,47.8 					"/>
				</g>
				<g>
					<polygon class="st2" points="50,41.7 66.1,35.5 50,29.3 33.8,35.5 					"/>
				</g>
			</g>
		</g>
	</g>
	<g>
		<line class="st2" x1="50" y1="9.4" x2="50" y2="14.2"/>
		<line class="st2" x1="30.6" y1="14.6" x2="33" y2="18.8"/>
		<line class="st2" x1="16.4" y1="28.8" x2="20.6" y2="31.2"/>
		<line class="st2" x1="83.6" y1="28.8" x2="79.4" y2="31.2"/>
		<line class="st2" x1="69.4" y1="14.6" x2="67" y2="18.8"/>
	</g>
</g>
</svg>
