<svg xmlns="http://www.w3.org/2000/svg" width="15" height="15" viewBox="0 0 15 15">
  <g id="Group_6567" data-name="Group 6567" transform="translate(-6442.436 -1993.517)">
    <g id="Frames" transform="translate(6442.436 1993.517)">
      <rect id="Rectangle_3123" data-name="Rectangle 3123" width="15" height="15" transform="translate(0 0)" fill="none"/>
    </g>
    <g id="AW" transform="translate(6442.436 1993.517)">
      <rect id="Rectangle_3125" data-name="Rectangle 3125" width="15" height="15" transform="translate(0 0)" fill="none"/>
      <path id="Path_2782" data-name="Path 2782" d="M6480.319,2048.516v1.525h-3.05v-1.525Z" transform="translate(-6472.044 -2040.266)" fill="none" stroke="#434447" stroke-linecap="round" stroke-linejoin="round" stroke-width="1"/>
      <path id="Path_2783" data-name="Path 2783" d="M6511.548,1998.02h3.958v13.649h-1.525" transform="translate(-6501.182 -1997.345)" fill="none" stroke="#434447" stroke-linecap="round" stroke-linejoin="round" stroke-width="1"/>
      <path id="Path_2784" data-name="Path 2784" d="M6446.938,1999.532v-1.512h3.958" transform="translate(-6446.263 -1997.345)" fill="none" stroke="#434447" stroke-linecap="round" stroke-linejoin="round" stroke-width="1"/>
      <path id="Path_2785" data-name="Path 2785" d="M6456.772,2033.237h-9.834v-9.843" transform="translate(-6446.263 -2018.912)" fill="none" stroke="#434447" stroke-linecap="round" stroke-linejoin="round" stroke-width="1"/>
      <line id="Line_303" data-name="Line 303" x2="12.124" transform="translate(2.2 9.775)" fill="none" stroke="#434447" stroke-linecap="round" stroke-linejoin="round" stroke-width="1"/>
      <line id="Line_304" data-name="Line 304" x2="1.525" transform="translate(0.675 6)" fill="none" stroke="#434447" stroke-linecap="round" stroke-linejoin="round" stroke-width="1"/>
      <line id="Line_305" data-name="Line 305" y1="3.025" transform="translate(6.75 9.775)" fill="none" stroke="#434447" stroke-linecap="round" stroke-linejoin="round" stroke-width="1"/>
      <path id="Path_2786" data-name="Path 2786" d="M6485.338,1999.541a1.9,1.9,0,1,1-3.042,0,1.521,1.521,0,1,1,3.042,0Z" transform="translate(-6476.318 -1997.345)" fill="none" stroke="#434447" stroke-linecap="round" stroke-linejoin="round" stroke-width="1"/>
      <path id="Path_2787" data-name="Path 2787" d="M6448.463,2024.877h-1.525v-1.525h1.525Z" transform="translate(-6446.263 -2018.877)" fill="none" stroke="#434447" stroke-linecap="round" stroke-linejoin="round" stroke-width="1"/>
    </g>
  </g>
</svg>
