<svg xmlns="http://www.w3.org/2000/svg" width="232.016" height="54.028" viewBox="0 0 232.016 54.028">
  <g id="Group_159" data-name="Group 159" transform="translate(0 0)">
    <g id="Symbol_41_1" data-name="Symbol 41 – 1">
      <g id="Group_138" data-name="Group 138" transform="translate(0 0)">
        <g id="Group_137" data-name="Group 137">
          <g id="Group_136" data-name="Group 136">
            <g id="Group_134" data-name="Group 134">
              <path id="Path_49" data-name="Path 49" d="M24.859,41.279l11.2-6.464L10.736,20.2a1.154,1.154,0,0,1,0-2l13.5-7.8a1.153,1.153,0,0,1,1.154,0L49.718,24.447V18.971a10.928,10.928,0,0,0-5.464-9.464L30.323,1.464a10.928,10.928,0,0,0-10.928,0L5.464,9.507A10.928,10.928,0,0,0,0,18.971v7.956Z" transform="translate(0 0)" fill="#f93549"/>
            </g>
            <g id="Group_135" data-name="Group 135" transform="translate(0 12.735)">
              <path id="Path_50" data-name="Path 50" d="M24.816,35.4l-11.2,6.464L38.939,56.477a1.154,1.154,0,0,1,0,2l-13.5,7.8a1.153,1.153,0,0,1-1.154,0L0,52.253v5.466a10.928,10.928,0,0,0,5.464,9.464l13.931,8.043a10.928,10.928,0,0,0,10.928,0l13.931-8.043a10.928,10.928,0,0,0,5.464-9.464V49.773Z" transform="translate(0 -35.396)" fill="#f93549"/>
            </g>
          </g>
        </g>
      </g>
    </g>
    <g id="Group_140" data-name="Group 140" transform="translate(66.209 9.979)">
      <path id="Path_51" data-name="Path 51" d="M187.558,101.663c-1.806-.387-2.137-.8-2.137-1.508s.672-1.213,1.634-1.213a3.3,3.3,0,0,1,2.054.693.537.537,0,0,0,.332.1.553.553,0,0,0,.552-.552.587.587,0,0,0-.244-.462,4.305,4.305,0,0,0-2.671-.827,2.516,2.516,0,0,0-2.8,2.365c0,1.537,1.132,2.1,2.833,2.468,1.727.364,2.043.774,2.043,1.473,0,.756-.706,1.284-1.716,1.284a3.606,3.606,0,0,1-2.508-.939.518.518,0,0,0-.357-.137.552.552,0,0,0-.552.564.524.524,0,0,0,.219.438,4.916,4.916,0,0,0,3.163,1.12c1.709,0,2.9-1,2.9-2.447C190.31,102.807,189.487,102.083,187.558,101.663Z" transform="translate(-184.025 -72.653)" fill="#54565a"/>
      <path id="Path_52" data-name="Path 52" d="M209.769,97.83a4.272,4.272,0,0,0-4.294,4.341v.023a4.2,4.2,0,0,0,4.271,4.318,4.277,4.277,0,0,0,4.294-4.364A4.2,4.2,0,0,0,209.769,97.83Zm0,7.612a3.276,3.276,0,1,1,3.1-3.272v.023A3.105,3.105,0,0,1,209.769,105.443Z" transform="translate(-197.758 -72.612)" fill="#54565a"/>
      <path id="Path_53" data-name="Path 53" d="M240.092,98.22h-5.063a.577.577,0,0,0-.564.576V106.1a.57.57,0,1,0,1.139,0v-3.049h3.961a.529.529,0,0,0,0-1.058H235.6V99.289h4.488a.535.535,0,0,0,.529-.541A.529.529,0,0,0,240.092,98.22Z" transform="translate(-216.318 -72.861)" fill="#54565a"/>
      <path id="Path_54" data-name="Path 54" d="M260.578,98.22H254.9a.548.548,0,0,0-.541.541.535.535,0,0,0,.541.529h2.266V106.1a.576.576,0,1,0,1.151,0V99.289h2.266a.535.535,0,0,0,.541-.529A.548.548,0,0,0,260.578,98.22Z" transform="translate(-229.051 -72.861)" fill="#54565a"/>
      <path id="Path_55" data-name="Path 55" d="M287.351,98.058a.578.578,0,0,0-.546.435l-2.164,6.223-2.04-6.222a.578.578,0,0,0-.558-.436h-.059a.572.572,0,0,0-.559.437l-2.04,6.221-2.151-6.2a.627.627,0,0,0-.582-.46.6.6,0,0,0-.587.576.78.78,0,0,0,.052.245l2.619,7.273a.612.612,0,0,0,.582.471h.07a.62.62,0,0,0,.582-.471l2.014-5.988,2.026,5.989a.62.62,0,0,0,.581.47h.07a.619.619,0,0,0,.581-.469l2.62-7.276.014-.041a.663.663,0,0,0,.05-.216A.592.592,0,0,0,287.351,98.058Z" transform="translate(-242.95 -72.757)" fill="#54565a"/>
      <path id="Path_56" data-name="Path 56" d="M314.266,98.437a.694.694,0,0,0-.673-.476h-.047a.708.708,0,0,0-.683.472l-3.32,7.26a.642.642,0,0,0-.069.292.529.529,0,0,0,.529.529.566.566,0,0,0,.543-.379l.825-1.842h4.351l.825,1.818a.607.607,0,0,0,.555.4.553.553,0,0,0,.552-.552.722.722,0,0,0-.068-.279Zm1,4.8h-3.431l1.716-3.815Z" transform="translate(-264.34 -72.695)" fill="#54565a"/>
      <path id="Path_57" data-name="Path 57" d="M343.566,100.76a2.359,2.359,0,0,0-.663-1.69,3.351,3.351,0,0,0-2.4-.85h-3.063a.577.577,0,0,0-.564.576V106.1a.57.57,0,1,0,1.139,0v-2.663h2.19l2.27,2.95a.639.639,0,0,0,.519.289.592.592,0,0,0,.576-.564.612.612,0,0,0-.175-.405l-1.929-2.484A2.444,2.444,0,0,0,343.566,100.76Zm-1.151.059c0,.957-.784,1.576-2,1.576h-2.406V99.289h2.418C341.691,99.289,342.414,99.838,342.414,100.819Z" transform="translate(-281.88 -72.861)" fill="#54565a"/>
      <path id="Path_58" data-name="Path 58" d="M366.435,105.564h-4.57v-2.649h3.985a.529.529,0,0,0,.529-.529.536.536,0,0,0-.529-.529h-3.985V99.278h4.511a.529.529,0,0,0,0-1.058H361.29a.577.577,0,0,0-.564.576v7.25a.577.577,0,0,0,.564.576h5.145a.529.529,0,0,0,0-1.058Z" transform="translate(-297.152 -72.861)" fill="#54565a"/>
      <path id="Path_59" data-name="Path 59" d="M196.488,40.429v-.047c0-2.5-1.653-3.9-5.528-4.694-3.893-.8-4.631-1.812-4.631-3.405v-.047c0-1.686,1.608-2.91,3.823-2.91a6.8,6.8,0,0,1,4.405,1.506.819.819,0,0,0,.51.18.8.8,0,0,0,.788-.788.812.812,0,0,0-.329-.636,8.237,8.237,0,0,0-5.328-1.721c-3.105,0-5.447,1.929-5.447,4.487V32.4c0,2.586,1.642,3.973,5.669,4.788,3.775.76,4.49,1.75,4.49,3.312v.047c0,1.81-1.63,3.074-3.963,3.074a7.485,7.485,0,0,1-5.416-2.094.862.862,0,0,0-.506-.177.8.8,0,0,0-.789.789.789.789,0,0,0,.3.608,9.4,9.4,0,0,0,6.34,2.334C194.181,45.08,196.488,43.167,196.488,40.429Z" transform="translate(-184.16 -27.819)" fill="#54565a"/>
      <path id="Path_60" data-name="Path 60" d="M244.739,28.321h-.117a.9.9,0,0,0-.757.43l-6.242,9.191-6.249-9.2a.942.942,0,0,0-.75-.421h-.117a.8.8,0,0,0-.788.789V44.466a.765.765,0,0,0,1.53,0V31.3l5.687,8.275a.767.767,0,0,0,1.328,0l5.688-8.277V44.442a.789.789,0,1,0,1.577,0V29.11A.8.8,0,0,0,244.739,28.321Z" transform="translate(-213.279 -28.111)" fill="#54565a"/>
      <path id="Path_61" data-name="Path 61" d="M285.116,45.064a.784.784,0,0,0,.749-.55l1.872-4.131h9.436l1.871,4.108a.876.876,0,0,0,.772.574.755.755,0,0,0,.765-.742.977.977,0,0,0-.11-.45L293.5,28.75a1.034,1.034,0,0,0-.982-.689h-.047a1.034,1.034,0,0,0-.983.69l-7,15.166a1.047,1.047,0,0,0-.111.452A.729.729,0,0,0,285.116,45.064Zm3.3-6.142,4.05-8.867,4.028,8.867Z" transform="translate(-248.271 -27.944)" fill="#54565a"/>
      <path id="Path_62" data-name="Path 62" d="M352.531,45.356a.844.844,0,0,0,.812-.812.831.831,0,0,0-.225-.531l-4.472-5.8c2.918-.5,4.65-2.278,4.65-4.813v-.047A4.5,4.5,0,0,0,352,30.184a6.612,6.612,0,0,0-4.739-1.668H340.99a.8.8,0,0,0-.788.789V44.567a.788.788,0,1,0,1.577,0V38.474h5.092l4.977,6.483A.856.856,0,0,0,352.531,45.356Zm-5.407-8.342h-5.345V30h5.415c2.834,0,4.525,1.272,4.525,3.4v.047C351.719,35.614,349.915,37.014,347.123,37.014Z" transform="translate(-284.012 -28.236)" fill="#54565a"/>
      <path id="Path_63" data-name="Path 63" d="M396.829,28.517h-11.7a.742.742,0,0,0,0,1.483h5.064V44.567a.789.789,0,1,0,1.577,0V30h5.064a.742.742,0,0,0,0-1.483Z" transform="translate(-312.297 -28.236)" fill="#54565a"/>
      <path id="Path_64" data-name="Path 64" d="M434.571,35.688c-3.893-.8-4.631-1.812-4.631-3.405v-.047c0-1.686,1.608-2.91,3.823-2.91a6.8,6.8,0,0,1,4.406,1.506.821.821,0,0,0,.51.18.8.8,0,0,0,.788-.788.811.811,0,0,0-.33-.636,8.237,8.237,0,0,0-5.328-1.721c-3.105,0-5.447,1.929-5.447,4.487V32.4c0,2.586,1.642,3.973,5.669,4.788,3.775.76,4.491,1.75,4.491,3.312v.047c0,1.81-1.63,3.074-3.964,3.074a7.484,7.484,0,0,1-5.416-2.094.862.862,0,0,0-.506-.176.8.8,0,0,0-.788.789.789.789,0,0,0,.3.608,9.4,9.4,0,0,0,6.34,2.334c3.3,0,5.611-1.912,5.611-4.651v-.047C440.1,37.881,438.445,36.477,434.571,35.688Z" transform="translate(-340.124 -27.819)" fill="#54565a"/>
      <path id="Path_65" data-name="Path 65" d="M479.455,28.517h-5.337a.8.8,0,0,0-.789.789V44.567a.788.788,0,1,0,1.577,0V39.153h4.245c3.27,0,6.57-1.67,6.57-5.4v-.047C485.721,30.553,483.261,28.517,479.455,28.517Zm4.689,5.26v.047c0,2.3-1.978,3.846-4.923,3.846h-4.315V30h4.455C482.356,30,484.144,31.412,484.144,33.776Z" transform="translate(-369.242 -28.236)" fill="#54565a"/>
      <path id="Path_66" data-name="Path 66" d="M519.539,28.75a1.033,1.033,0,0,0-.982-.689h-.047a1.035,1.035,0,0,0-.983.69l-7,15.166a1.049,1.049,0,0,0-.111.452.729.729,0,0,0,.742.695.784.784,0,0,0,.749-.55l1.872-4.131h9.436l1.871,4.108a.876.876,0,0,0,.772.574.755.755,0,0,0,.765-.742.978.978,0,0,0-.11-.45Zm3,10.172h-8.078l4.05-8.867Z" transform="translate(-392.987 -27.944)" fill="#54565a"/>
      <path id="Path_67" data-name="Path 67" d="M575.758,41.126a.765.765,0,0,0-.546.237A7.039,7.039,0,0,1,570,43.583a6.908,6.908,0,0,1-6.749-7.194v-.047c0-4.074,2.892-7.147,6.726-7.147a7.123,7.123,0,0,1,5.093,2.077.8.8,0,0,0,.548.217.821.821,0,0,0,.812-.788.879.879,0,0,0-.3-.629A8.708,8.708,0,0,0,570,27.736a8.426,8.426,0,0,0-8.373,8.654v.047a8.284,8.284,0,0,0,8.326,8.607,8.645,8.645,0,0,0,6.331-2.6.768.768,0,0,0,.24-.548A.8.8,0,0,0,575.758,41.126Z" transform="translate(-425.772 -27.736)" fill="#54565a"/>
      <path id="Path_68" data-name="Path 68" d="M623.7,43.779H614.54V37.561h8.111a.742.742,0,0,0,0-1.483H614.54V30H623.7a.742.742,0,0,0,0-1.483h-9.953a.8.8,0,0,0-.788.789V44.474a.8.8,0,0,0,.788.788H623.7a.742.742,0,1,0,0-1.483Z" transform="translate(-458.639 -28.236)" fill="#54565a"/>
    </g>
  </g>
</svg>
