<svg xmlns="http://www.w3.org/2000/svg" width="25" height="25" viewBox="0 0 25 25">
  <g id="Group_160" data-name="Group 160" transform="translate(-1258.986 -29.794)">
    <path id="Path_96" data-name="Path 96" d="M213.985,15.883a12.5,12.5,0,1,1,12.5-12.5A12.514,12.514,0,0,1,213.985,15.883Zm0-23.724A11.224,11.224,0,1,0,225.209,3.383,11.237,11.237,0,0,0,213.985-7.841Z" transform="translate(1057.501 38.911)" fill="#646367"/>
    <path id="Path_97" data-name="Path 97" d="M214.153,5.385A4.282,4.282,0,1,1,218.436,1.1,4.287,4.287,0,0,1,214.153,5.385Zm0-7.289A3.006,3.006,0,1,0,217.16,1.1,3.01,3.01,0,0,0,214.153-1.9Z" transform="translate(1057.516 38.922)" fill="#646367"/>
    <path id="Path_98" data-name="Path 98" d="M221.37,13.153a.638.638,0,0,1-.638-.638c0-4.072-2.825-7.142-6.572-7.142s-6.572,3.07-6.572,7.142a.638.638,0,1,1-1.276,0c0-4.8,3.374-8.418,7.848-8.418,4.4,0,7.848,3.7,7.848,8.418A.638.638,0,0,1,221.37,13.153Z" transform="translate(1057.51 38.935)" fill="#646367"/>
  </g>
</svg>
